<mxfile host="app.diagrams.net" modified="2023-10-24T11:14:04.049Z" agent="Mozilla/5.0 (Windows NT 10.0; Win64; x64) AppleWebKit/537.36 (KHTML, like Gecko) Chrome/118.0.0.0 Safari/537.36" etag="CIbtjMux-FA3WgKNe6V4" version="22.0.6" type="google">
  <diagram id="C5RBs43oDa-KdzZeNtuy" name="Page-1">
    <mxGraphModel grid="1" page="1" gridSize="10" guides="1" tooltips="1" connect="1" arrows="1" fold="1" pageScale="1" pageWidth="827" pageHeight="1169" math="0" shadow="0">
      <root>
        <mxCell id="WIyWlLk6GJQsqaUBKTNV-0" />
        <mxCell id="WIyWlLk6GJQsqaUBKTNV-1" parent="WIyWlLk6GJQsqaUBKTNV-0" />
        <mxCell id="2rC6JWdYOCoguxwhEhEq-2" value="員工" style="shape=umlActor;verticalLabelPosition=bottom;verticalAlign=top;html=1;outlineConnect=0;" vertex="1" parent="WIyWlLk6GJQsqaUBKTNV-1">
          <mxGeometry x="-180" y="170" width="30" height="60" as="geometry" />
        </mxCell>
        <mxCell id="2rC6JWdYOCoguxwhEhEq-15" value="" style="endArrow=classic;html=1;rounded=0;" edge="1" parent="WIyWlLk6GJQsqaUBKTNV-1">
          <mxGeometry relative="1" as="geometry">
            <mxPoint x="-130" y="210" as="sourcePoint" />
            <mxPoint x="-30" y="290" as="targetPoint" />
          </mxGeometry>
        </mxCell>
        <mxCell id="2rC6JWdYOCoguxwhEhEq-16" value="掃描臉部" style="edgeLabel;resizable=0;html=1;align=center;verticalAlign=middle;" connectable="0" vertex="1" parent="2rC6JWdYOCoguxwhEhEq-15">
          <mxGeometry relative="1" as="geometry" />
        </mxCell>
        <mxCell id="2rC6JWdYOCoguxwhEhEq-17" value="訪客" style="shape=umlActor;verticalLabelPosition=bottom;verticalAlign=top;html=1;outlineConnect=0;" vertex="1" parent="WIyWlLk6GJQsqaUBKTNV-1">
          <mxGeometry x="-180" y="370" width="30" height="60" as="geometry" />
        </mxCell>
        <mxCell id="2rC6JWdYOCoguxwhEhEq-19" value="保全" style="shape=umlActor;verticalLabelPosition=bottom;verticalAlign=top;html=1;outlineConnect=0;" vertex="1" parent="WIyWlLk6GJQsqaUBKTNV-1">
          <mxGeometry x="540" y="290" width="30" height="60" as="geometry" />
        </mxCell>
        <mxCell id="2rC6JWdYOCoguxwhEhEq-30" value="" style="endArrow=classic;html=1;rounded=0;" edge="1" parent="WIyWlLk6GJQsqaUBKTNV-1">
          <mxGeometry relative="1" as="geometry">
            <mxPoint x="-140" y="400" as="sourcePoint" />
            <mxPoint x="-30" y="340" as="targetPoint" />
          </mxGeometry>
        </mxCell>
        <mxCell id="2rC6JWdYOCoguxwhEhEq-31" value="掃描臉部" style="edgeLabel;resizable=0;html=1;align=center;verticalAlign=middle;" connectable="0" vertex="1" parent="2rC6JWdYOCoguxwhEhEq-30">
          <mxGeometry relative="1" as="geometry" />
        </mxCell>
        <mxCell id="2rC6JWdYOCoguxwhEhEq-32" value="" style="whiteSpace=wrap;html=1;aspect=fixed;" vertex="1" parent="WIyWlLk6GJQsqaUBKTNV-1">
          <mxGeometry x="-20" y="80" width="520" height="520" as="geometry" />
        </mxCell>
        <mxCell id="2rC6JWdYOCoguxwhEhEq-34" value="AI員工臉部辨識打卡系統" style="rounded=0;whiteSpace=wrap;html=1;" vertex="1" parent="WIyWlLk6GJQsqaUBKTNV-1">
          <mxGeometry x="-20" y="20" width="200" height="60" as="geometry" />
        </mxCell>
        <mxCell id="foByHX_v5JSkixbLpGUg-12" style="edgeStyle=orthogonalEdgeStyle;rounded=0;orthogonalLoop=1;jettySize=auto;html=1;entryX=0;entryY=0.5;entryDx=0;entryDy=0;" edge="1" parent="WIyWlLk6GJQsqaUBKTNV-1" source="foByHX_v5JSkixbLpGUg-2" target="foByHX_v5JSkixbLpGUg-3">
          <mxGeometry relative="1" as="geometry" />
        </mxCell>
        <mxCell id="foByHX_v5JSkixbLpGUg-16" value="員工" style="edgeLabel;html=1;align=center;verticalAlign=middle;resizable=0;points=[];" connectable="0" vertex="1" parent="foByHX_v5JSkixbLpGUg-12">
          <mxGeometry y="-2" relative="1" as="geometry">
            <mxPoint as="offset" />
          </mxGeometry>
        </mxCell>
        <mxCell id="foByHX_v5JSkixbLpGUg-13" style="edgeStyle=orthogonalEdgeStyle;rounded=0;orthogonalLoop=1;jettySize=auto;html=1;entryX=0;entryY=0.5;entryDx=0;entryDy=0;" edge="1" parent="WIyWlLk6GJQsqaUBKTNV-1" source="foByHX_v5JSkixbLpGUg-2" target="foByHX_v5JSkixbLpGUg-4">
          <mxGeometry relative="1" as="geometry" />
        </mxCell>
        <mxCell id="foByHX_v5JSkixbLpGUg-17" value="訪客" style="edgeLabel;html=1;align=center;verticalAlign=middle;resizable=0;points=[];" connectable="0" vertex="1" parent="foByHX_v5JSkixbLpGUg-13">
          <mxGeometry y="2" relative="1" as="geometry">
            <mxPoint as="offset" />
          </mxGeometry>
        </mxCell>
        <mxCell id="foByHX_v5JSkixbLpGUg-2" value="分辨員工或是訪客" style="ellipse;whiteSpace=wrap;html=1;" vertex="1" parent="WIyWlLk6GJQsqaUBKTNV-1">
          <mxGeometry y="270" width="120" height="80" as="geometry" />
        </mxCell>
        <mxCell id="foByHX_v5JSkixbLpGUg-28" style="edgeStyle=orthogonalEdgeStyle;rounded=0;orthogonalLoop=1;jettySize=auto;html=1;entryX=0;entryY=0.5;entryDx=0;entryDy=0;" edge="1" parent="WIyWlLk6GJQsqaUBKTNV-1" source="foByHX_v5JSkixbLpGUg-3" target="foByHX_v5JSkixbLpGUg-27">
          <mxGeometry relative="1" as="geometry" />
        </mxCell>
        <mxCell id="foByHX_v5JSkixbLpGUg-3" value="顯示姓名及打卡時間" style="ellipse;whiteSpace=wrap;html=1;" vertex="1" parent="WIyWlLk6GJQsqaUBKTNV-1">
          <mxGeometry x="140" y="130" width="130" height="80" as="geometry" />
        </mxCell>
        <mxCell id="foByHX_v5JSkixbLpGUg-25" style="edgeStyle=orthogonalEdgeStyle;rounded=0;orthogonalLoop=1;jettySize=auto;html=1;" edge="1" parent="WIyWlLk6GJQsqaUBKTNV-1" source="foByHX_v5JSkixbLpGUg-4" target="2rC6JWdYOCoguxwhEhEq-19">
          <mxGeometry relative="1" as="geometry" />
        </mxCell>
        <mxCell id="foByHX_v5JSkixbLpGUg-26" value="未登記通知保全" style="edgeLabel;html=1;align=center;verticalAlign=middle;resizable=0;points=[];" connectable="0" vertex="1" parent="foByHX_v5JSkixbLpGUg-25">
          <mxGeometry x="-0.2727" y="-1" relative="1" as="geometry">
            <mxPoint as="offset" />
          </mxGeometry>
        </mxCell>
        <mxCell id="foByHX_v5JSkixbLpGUg-4" value="判斷是否登記" style="ellipse;whiteSpace=wrap;html=1;" vertex="1" parent="WIyWlLk6GJQsqaUBKTNV-1">
          <mxGeometry x="140" y="420" width="140" height="80" as="geometry" />
        </mxCell>
        <mxCell id="foByHX_v5JSkixbLpGUg-27" value="判斷準時或遲到" style="ellipse;whiteSpace=wrap;html=1;" vertex="1" parent="WIyWlLk6GJQsqaUBKTNV-1">
          <mxGeometry x="340" y="130" width="120" height="80" as="geometry" />
        </mxCell>
      </root>
    </mxGraphModel>
  </diagram>
</mxfile>
